
<svg width="48" height="48" viewBox="0 0 48 48" fill="none" xmlns="http://www.w3.org/2000/svg">
<path d="M7.23341 22.6332L7.23357 22.6331L7.2247 22.6223C7.04113 22.3994 6.96128 22.0771 7.0263 21.791L7.02637 21.791L7.02814 21.7826L9.28792 10.9836C9.28795 10.9834 9.28798 10.9833 9.28801 10.9832C9.65304 9.25682 10.1892 7.69396 11.2969 6.55649C12.3878 5.4363 14.1031 4.66016 16.9787 4.66016H31.0387C33.9135 4.66016 35.6289 5.44078 36.7202 6.56363C37.8282 7.70373 38.3644 9.26678 38.7294 10.9829C38.7295 10.9833 38.7296 10.9837 38.7297 10.9842L40.9893 21.8024L40.9892 21.8024L40.9912 21.811C41.0536 22.0858 40.9839 22.3892 40.7935 22.6409C40.5849 22.8712 40.3035 23.0002 39.9987 23.0002H7.99874C7.68815 23.0002 7.41573 22.8676 7.23341 22.6332ZM9.34952 20.3969L9.22216 21.0002H9.83874H38.1387H38.754L38.6282 20.3979L36.7482 11.3979L36.7477 11.3956C36.4699 10.0961 36.1448 8.87227 35.2945 7.99886C34.4217 7.10243 33.0903 6.66016 31.0187 6.66016H16.9787C14.9071 6.66016 13.5758 7.10243 12.703 7.99886C11.8526 8.87227 11.5275 10.0961 11.2498 11.3956L11.2495 11.3969L9.34952 20.3969Z" fill="#494949" stroke="#494949"/>
<path d="M32.3743 42.2642L32.3735 42.2619L31.9736 41.0619L31.9723 41.0582L31.9589 41.019C31.8378 40.665 31.7311 40.3529 31.6154 40.1012C31.4925 39.8339 31.3389 39.5863 31.0984 39.3971C30.8557 39.2061 30.572 39.1116 30.256 39.0612C29.9467 39.012 29.571 39 29.1192 39H18.8792C17.9915 39 17.3355 39.072 16.8687 39.4566C16.6326 39.6512 16.479 39.8968 16.3579 40.1599C16.2408 40.4141 16.1387 40.7204 16.0275 41.054L16.0249 41.0619L15.6256 42.2596C15.6255 42.2599 15.6254 42.2602 15.6253 42.2605C15.4109 42.8935 15.1856 43.5526 14.671 44.0736C14.1773 44.5734 13.3568 45 11.8392 45H8.0792C6.63703 45 5.25184 44.3972 4.2883 43.3427C3.34428 42.3077 2.88985 40.9272 3.01709 39.5459L3.01709 39.5458L4.13709 27.3658L4.13714 27.3653C4.28648 25.7226 4.57489 24.1552 5.53081 22.9896C6.46393 21.8518 8.12009 21 11.2392 21H36.7592C39.8781 21 41.5291 21.8517 42.4597 22.9891C43.4137 24.155 43.7019 25.7223 43.8614 27.3672C43.8615 27.3676 43.8615 27.3679 43.8615 27.3683L44.9813 39.5458L44.9813 39.5459C45.1085 40.9272 44.6541 42.3077 43.7101 43.3427C42.7465 44.3972 41.3614 45 39.9192 45H36.1592C34.6429 45 33.8168 44.5691 33.3199 44.0661C32.803 43.5428 32.5769 42.8822 32.3743 42.2642ZM42.2461 42.0197L42.2466 42.0191C42.8236 41.394 43.0892 40.5948 43.0174 39.7573L43.0171 39.7542L41.8971 27.5742L41.8969 27.5721C41.7705 26.2596 41.6253 25.0552 40.8819 24.2241C40.1151 23.367 38.8347 23.02 36.7992 23.02H11.2392C9.19475 23.02 7.90866 23.3666 7.14154 24.2241C6.39687 25.0566 6.25792 26.2623 6.14123 27.575C6.1412 27.5752 6.14118 27.5755 6.14116 27.5757L5.02129 39.7542L5.02102 39.7573C4.94937 40.5932 5.21379 41.3911 5.78862 42.0157C6.37163 42.6694 7.23073 43.02 8.0992 43.02H11.8592C12.1208 43.02 12.3537 43.0194 12.5442 42.9982C12.7405 42.9763 12.9522 42.9275 13.1421 42.7884C13.3313 42.6498 13.4412 42.4637 13.521 42.2879C13.5946 42.1259 13.664 41.9216 13.7406 41.6961L13.7526 41.661L13.7526 41.661L13.7543 41.6558L14.1543 40.4358L14.1544 40.4358L14.1564 40.4291C14.4083 39.6232 14.6899 38.7911 15.3358 38.143C15.9622 37.5145 16.9967 37 18.8792 37H29.1192C30.8668 37 31.8561 37.3881 32.4935 37.9501C33.1461 38.5253 33.5075 39.346 33.8658 40.4008L34.2849 41.6381L34.2856 41.6404L34.2966 41.6734C34.3734 41.9038 34.4426 42.1115 34.5158 42.2762C34.595 42.4539 34.704 42.6424 34.8926 42.7832C35.0829 42.9252 35.2958 42.9754 35.4932 42.9978C35.6843 43.0194 35.9178 43.02 36.1792 43.02H39.9392C40.8153 43.02 41.6493 42.6642 42.2461 42.0197Z" fill="#494949" stroke="#494949"/>
<path d="M7.99902 17H5.99902C5.45517 17 4.99902 16.5439 4.99902 16C4.99902 15.4561 5.45517 15 5.99902 15H7.99902C8.54288 15 8.99902 15.4561 8.99902 16C8.99902 16.5439 8.54288 17 7.99902 17Z" fill="#494949" stroke="#494949"/>
<path d="M41.999 17H39.999C39.4552 17 38.999 16.5439 38.999 16C38.999 15.4561 39.4552 15 39.999 15H41.999C42.5429 15 42.999 15.4561 42.999 16C42.999 16.5439 42.5429 17 41.999 17Z" fill="#494949" stroke="#494949"/>
<path d="M23.999 11C23.4552 11 22.999 10.5439 22.999 10V6C22.999 5.45614 23.4552 5 23.999 5C24.5429 5 24.999 5.45614 24.999 6V10C24.999 10.5439 24.5429 11 23.999 11Z" fill="#494949" stroke="#494949"/>
<path d="M26.999 11H20.999C20.4552 11 19.999 10.5439 19.999 10C19.999 9.45614 20.4552 9 20.999 9H26.999C27.5429 9 27.999 9.45614 27.999 10C27.999 10.5439 27.5429 11 26.999 11Z" fill="#494949" stroke="#494949"/>
<path d="M17.999 31H11.999C11.4552 31 10.999 30.5439 10.999 30C10.999 29.4561 11.4552 29 11.999 29H17.999C18.5429 29 18.999 29.4561 18.999 30C18.999 30.5439 18.5429 31 17.999 31Z" fill="#494949" stroke="#494949"/>
<path d="M35.999 31H29.999C29.4552 31 28.999 30.5439 28.999 30C28.999 29.4561 29.4552 29 29.999 29H35.999C36.5429 29 36.999 29.4561 36.999 30C36.999 30.5439 36.5429 31 35.999 31Z" fill="#494949" stroke="#494949"/>
</svg>
