
<svg width="32" height="32" viewBox="0 0 32 32" fill="none" xmlns="http://www.w3.org/2000/svg">
<rect x="0.25" y="0.25" width="31.5" height="31.5" rx="1.75" stroke="#C2C2C2" stroke-width="0.5"/>
<path d="M24.5432 10.1885L24.5579 10.1707L20.3474 6.76013L19.021 8.39591L21.1969 10.158C20.657 10.486 20.2285 10.9688 19.9668 11.5436C19.7051 12.1185 19.6224 12.7587 19.7295 13.3812C19.8874 14.3275 20.5389 15.1454 21.3822 15.6033C22.3242 16.1159 23.1505 16.0685 23.8852 15.8075L23.8694 22.3149C23.8708 22.4892 23.8286 22.661 23.7466 22.8149C23.6649 22.9687 23.5459 23.0999 23.4006 23.1961C23.2554 23.2925 23.0884 23.3511 22.9148 23.3668C22.7411 23.3823 22.5664 23.3543 22.4063 23.2853C22.2809 23.2318 22.1672 23.1542 22.0716 23.0569C21.9743 22.9595 21.8971 22.8437 21.8445 22.7164C21.7921 22.5891 21.765 22.4526 21.7653 22.3149L21.7895 20.2096C21.7906 19.7953 21.7095 19.3848 21.551 19.002C21.3926 18.6191 21.1598 18.2715 20.8663 17.9791C20.5731 17.6852 20.2247 17.452 19.8413 17.2929C19.4578 17.1337 19.0467 17.0518 18.6316 17.0517H17.5789V8.63065C17.5789 8.0723 17.3571 7.53682 16.9623 7.14201C16.5675 6.74719 16.032 6.52539 15.4737 6.52539H8.10527C7.54691 6.52539 7.01143 6.74719 6.61662 7.14201C6.2218 7.53682 6 8.0723 6 8.63065V23.3676C6 23.9258 6.2218 24.4613 6.61662 24.8561C7.01143 25.251 7.54691 25.4727 8.10527 25.4727H15.4737C16.032 25.4727 16.5675 25.251 16.9623 24.8561C17.3571 24.4613 17.5789 23.9258 17.5789 23.3676V19.157H18.6316C18.7747 19.157 18.9126 19.1854 19.0431 19.2391C19.2937 19.3487 19.4934 19.5492 19.6021 19.8001C19.6567 19.9297 19.6846 20.069 19.6842 20.2096L19.6589 22.3149C19.6589 22.7423 19.7421 23.1558 19.9074 23.5443C20.0663 23.9222 20.2947 24.2602 20.5821 24.5453C20.8742 24.8406 21.2224 25.0748 21.606 25.234C21.9898 25.3932 22.4014 25.4744 22.8168 25.4727C23.2442 25.4727 23.6568 25.3907 24.0464 25.2244C24.4231 25.0665 24.7621 24.838 25.0473 24.5496C25.342 24.257 25.5758 23.9088 25.7349 23.5252C25.8941 23.1415 25.9757 22.7301 25.9748 22.3149L26 12.8412C25.9989 12.3124 25.865 11.7923 25.6105 11.3288C25.3559 10.8653 24.9888 10.4732 24.5432 10.1885ZM15.4737 11.7885H8.10527V8.63065H15.4737V11.7885ZM22.8422 13.8938C22.563 13.8938 22.2951 13.7829 22.0977 13.5855C21.9004 13.3881 21.7895 13.1204 21.7895 12.8412C21.7895 12.562 21.9004 12.2943 22.0977 12.0969C22.2951 11.8995 22.563 11.7885 22.8422 11.7885C23.1212 11.7885 23.389 11.8995 23.5864 12.0969C23.7839 12.2943 23.8947 12.562 23.8947 12.8412C23.8947 13.1204 23.7839 13.3881 23.5864 13.5855C23.389 13.7829 23.1212 13.8938 22.8422 13.8938Z" fill="#727272"/>
</svg>
