
<svg width="33" height="32" viewBox="0 0 33 32" fill="none" xmlns="http://www.w3.org/2000/svg">
<rect x="0.75" y="0.25" width="31.5" height="31.5" rx="1.75" stroke="#C2C2C2" stroke-width="0.5"/>
<g clip-path="url(#clip0_2685_77085)">
<path d="M13.0262 6C13.7251 5.99978 14.4004 6.25239 14.9276 6.71119C15.4547 7.17 15.7981 7.80403 15.8943 8.49623C15.9905 9.18844 15.8331 9.89207 15.451 10.4772C15.069 11.0624 14.4881 11.4896 13.8157 11.68V15.7369C13.8157 15.9462 13.7325 16.1471 13.5844 16.2951C13.4364 16.4432 13.2356 16.5264 13.0262 16.5264C12.8168 16.5264 12.616 16.4432 12.468 16.2951C12.3199 16.1471 12.2367 15.9462 12.2367 15.7369V11.68C11.5658 11.4882 10.9867 11.0605 10.606 10.4757C10.2253 9.89091 10.0685 9.18831 10.1646 8.49712C10.2606 7.80596 10.6031 7.17272 11.1288 6.71392C11.6546 6.25511 12.3284 6.00159 13.0262 6ZM14.342 8.89475C14.342 8.54578 14.2034 8.21111 13.9566 7.96434C13.7099 7.71758 13.3752 7.57895 13.0262 7.57895C12.6772 7.57895 12.3426 7.71758 12.0958 7.96434C11.849 8.21111 11.7104 8.54578 11.7104 8.89475C11.7104 9.24372 11.849 9.5784 12.0958 9.82516C12.3426 10.0719 12.6772 10.2105 13.0262 10.2105C13.3752 10.2105 13.7099 10.0719 13.9566 9.82516C14.2034 9.5784 14.342 9.24372 14.342 8.89475ZM22.4999 10.7369C22.4999 10.0389 22.2226 9.36956 21.7291 8.87604C21.2356 8.38253 20.5662 8.10527 19.8683 8.10527C19.1704 8.10527 18.501 8.38253 18.0075 8.87604C17.514 9.36956 17.2367 10.0389 17.2367 10.7369V14.4211H14.8683V16H18.8157V10.7369C18.8157 10.4577 18.9266 10.1899 19.124 9.99253C19.3214 9.79512 19.5892 9.68422 19.8683 9.68422C20.1476 9.68422 20.4152 9.79512 20.6127 9.99253C20.8101 10.1899 20.921 10.4577 20.921 10.7369V23.3685C20.921 23.6476 20.8101 23.9154 20.6127 24.1128C20.4152 24.3101 20.1476 24.4211 19.8683 24.4211C19.5892 24.4211 19.3214 24.3101 19.124 24.1128C18.9266 23.9154 18.8157 23.6476 18.8157 23.3685V18.1053H14.0788V23.3685C14.0788 23.6476 13.9679 23.9154 13.7705 24.1128C13.5731 24.3101 13.3054 24.4211 13.0262 24.4211C12.747 24.4211 12.4793 24.3101 12.2819 24.1128C12.0845 23.9154 11.9736 23.6476 11.9736 23.3685V18.1053H5.65776C5.51817 18.1053 5.3843 18.0499 5.28559 17.9512C5.18689 17.8524 5.13144 17.7186 5.13144 17.579V10.7369C5.13144 10.4577 5.24234 10.1899 5.43975 9.99253C5.63716 9.79512 5.9049 9.68422 6.18408 9.68422C6.46325 9.68422 6.731 9.79512 6.9284 9.99253C7.12581 10.1899 7.23671 10.4577 7.23671 10.7369V16H11.1841V14.4211H8.81566V10.7369C8.81566 10.0389 8.53841 9.36956 8.04489 8.87604C7.55137 8.38253 6.88202 8.10527 6.18408 8.10527C5.48613 8.10527 4.81678 8.38253 4.32326 8.87604C3.82974 9.36956 3.55249 10.0389 3.55249 10.7369V17.579C3.55249 18.1373 3.77429 18.6728 4.16911 19.0676C4.56392 19.4625 5.09941 19.6842 5.65776 19.6842H10.3946V23.3685C10.3946 24.0664 10.6719 24.7357 11.1654 25.2293C11.6589 25.7228 12.3283 26 13.0262 26C13.7241 26 14.3935 25.7228 14.887 25.2293C15.3805 24.7357 15.6578 24.0664 15.6578 23.3685V19.6842H17.2367V23.3685C17.2367 24.0664 17.514 24.7357 18.0075 25.2293C18.501 25.7228 19.1704 26 19.8683 26C20.5662 26 21.2356 25.7228 21.7291 25.2293C22.2226 24.7357 22.4999 24.0664 22.4999 23.3685V10.7369Z" fill="#727272"/>
</g>
<defs>
<clipPath id="clip0_2685_77085">
<rect width="18.9475" height="20" fill="white" transform="translate(3.55249 6)"/>
</clipPath>
</defs>
</svg>
