
<svg width="32" height="32" viewBox="0 0 32 32" fill="none" xmlns="http://www.w3.org/2000/svg">
<rect x="0.25" y="0.25" width="31.5" height="31.5" rx="1.75" stroke="#C2C2C2" stroke-width="0.5"/>
<g clip-path="url(#clip0_2685_77091)">
<path d="M15.071 8.50366C13.5818 8.68457 12.1694 9.30745 10.9929 10.3021L12.0112 11.3944C12.1753 11.5831 12.2646 11.8327 12.2604 12.0906C12.2561 12.3485 12.1586 12.5945 11.9884 12.7769C11.8182 12.9593 11.5885 13.0638 11.3479 13.0683C11.1071 13.0729 10.8742 12.9772 10.6981 12.8013L9.67485 11.7063C8.80521 12.8751 8.23939 14.2693 8.03472 15.7478H10.1159C10.3623 15.7478 10.5986 15.8527 10.7728 16.0394C10.9471 16.2261 11.0449 16.4793 11.0449 16.7433C11.0449 17.0073 10.9471 17.2605 10.7728 17.4472C10.5986 17.6338 10.3623 17.7387 10.1159 17.7387H7.97897C8.17184 19.8688 9.08049 21.8513 10.5358 23.3172C10.7113 23.4988 10.8131 23.7472 10.8191 24.0086C10.8252 24.2699 10.735 24.5233 10.568 24.7141C10.4011 24.9048 10.1708 25.0175 9.92696 25.0278C9.68311 25.0382 9.44527 24.9452 9.26483 24.7692C7.35711 22.8539 6.08984 20.0296 6.08984 16.9994C6.08984 11.1701 10.5333 6.45703 16 6.45703C21.4668 6.45703 25.9103 11.1688 25.9103 16.9994C25.9077 18.4542 25.6291 19.8933 25.0912 21.2289C24.5532 22.5648 23.7672 23.7692 22.7811 24.7692C22.6007 24.9452 22.3628 25.0382 22.1189 25.0278C21.8751 25.0175 21.6448 24.9048 21.4779 24.7141C21.3109 24.5233 21.2208 24.2699 21.2268 24.0086C21.2328 23.7472 21.3345 23.4988 21.5101 23.3172C22.9553 21.8489 23.8489 19.8645 24.0223 17.7387H21.8843C21.6379 17.7387 21.4015 17.6338 21.2272 17.4472C21.0531 17.2605 20.9551 17.0073 20.9551 16.7433C20.9551 16.4793 21.0531 16.2261 21.2272 16.0394C21.4015 15.8527 21.6379 15.7478 21.8843 15.7478H23.9653C23.4401 11.9439 20.5551 8.94565 16.9291 8.50366V10.107C16.9291 10.371 16.8312 10.6242 16.657 10.8109C16.4828 10.9976 16.2464 11.1024 16 11.1024C15.7536 11.1024 15.5173 10.9976 15.3431 10.8109C15.1688 10.6242 15.071 10.371 15.071 10.107V8.50366ZM20.2725 11.5099C20.3852 11.4141 20.5253 11.3633 20.6691 11.366C20.8128 11.3688 20.9511 11.4251 21.0604 11.5252C21.1696 11.6253 21.2429 11.763 21.2679 11.9147C21.2927 12.0664 21.2676 12.2227 21.1967 12.3567L21.0604 12.6168C20.5623 13.5593 20.0609 14.4999 19.5565 15.4386C19.1533 16.1897 18.7445 16.9374 18.3302 17.6816C18.1749 17.9616 18.0163 18.2395 17.8545 18.5152C17.7306 18.7235 17.6092 18.9213 17.52 19.0328C17.2 19.4344 16.7442 19.6834 16.2529 19.725C15.7615 19.7666 15.2749 19.5973 14.9 19.2544C14.5251 18.9116 14.2927 18.4232 14.2539 17.8968C14.2151 17.3703 14.3731 16.8489 14.6931 16.4473C14.7823 16.3358 14.9446 16.1752 15.118 16.012C15.3038 15.8354 15.5429 15.6191 15.8117 15.3762C16.3518 14.8931 17.0282 14.3011 17.6872 13.7304C18.4733 13.0491 19.262 12.3713 20.0533 11.697L20.2725 11.5099Z" fill="#828282"/>
</g>
<defs>
<clipPath id="clip0_2685_77091">
<rect width="20" height="20" fill="white" transform="translate(6 6)"/>
</clipPath>
</defs>
</svg>
