
<svg width="32" height="32" viewBox="0 0 32 32" fill="none" xmlns="http://www.w3.org/2000/svg">
<rect x="0.25" y="0.25" width="31.5" height="31.5" rx="1.75" stroke="#C2C2C2" stroke-width="0.5"/>
<path d="M9.80542 6.02311C9.40886 6.09149 9.08066 6.30117 8.59748 6.7889C8.20548 7.19003 8.15989 7.25383 8.15989 7.40426C8.15989 7.62306 8.28753 7.75068 8.50632 7.75068C8.65674 7.75068 8.72056 7.7051 9.11257 7.32222C9.57295 6.8755 9.67323 6.80257 9.93761 6.74332C10.2157 6.6795 10.4709 6.77522 10.9541 7.12165L11.4054 7.44529L8.58837 10.2623C7.03857 11.8121 5.7577 13.0656 5.73946 13.0474C5.62095 12.9152 5.19247 12.3044 5.13322 12.1859C5.03295 11.9899 5.04206 11.6024 5.1469 11.3745C5.2016 11.256 5.703 10.7227 6.55995 9.87027C7.79979 8.63499 7.8864 8.53927 7.8864 8.38884C7.8864 8.13814 7.78155 8.02418 7.55365 8.02418C7.3622 8.02418 7.35309 8.02874 5.98561 9.40077C4.34009 11.0554 4.35376 11.0372 4.35376 11.7847C4.35376 12.2542 4.36288 12.3044 4.49051 12.546C4.568 12.6873 5.00559 13.3163 5.47054 13.9453C6.35938 15.1487 6.43688 15.2262 6.69214 15.1305C6.76051 15.1031 6.93373 14.9664 7.07959 14.8251L7.33941 14.5653L7.50807 14.7339L7.67672 14.9026L7.4397 15.1487C6.55084 16.0923 6.18618 17.4779 6.5007 18.736C6.61009 19.1782 6.97475 19.8983 7.27103 20.2539C7.74965 20.8237 8.51087 21.316 9.17638 21.4892C9.3268 21.5257 9.44987 21.5621 9.45444 21.5712C9.45899 21.5803 9.50913 21.7262 9.56383 21.904C9.61853 22.0772 9.7416 22.3553 9.83277 22.5148C10.0698 22.9114 10.6122 23.4128 11.0225 23.6133L11.3507 23.773V24.4794C11.3507 25.1312 11.3598 25.2042 11.4601 25.423C11.7062 25.9471 12.358 26.1523 12.8822 25.8788C13.0235 25.8058 13.3563 25.4549 13.3563 25.382C13.3563 25.3637 13.452 25.3455 13.5751 25.3455C13.7802 25.3455 13.7984 25.3546 13.9489 25.5597C14.1722 25.8606 14.4275 25.9928 14.7876 25.9928C15.1887 25.9973 15.5397 25.7967 15.7083 25.4686C15.7676 25.3591 15.7995 25.3455 16.0001 25.3455C16.2007 25.3455 16.2325 25.3591 16.2918 25.4686C16.4604 25.7967 16.8114 25.9928 17.2126 25.9928C17.5727 25.9973 17.8279 25.8606 18.0513 25.5597C18.2017 25.3591 18.2199 25.3455 18.425 25.3455C18.6029 25.3455 18.6484 25.3637 18.694 25.4504C19.0769 26.1934 20.189 26.175 20.54 25.423C20.6495 25.186 20.6495 25.1723 20.6495 23.7501V22.3096L20.964 22.2322C21.2785 22.1501 21.7115 21.9222 21.9257 21.7262C22.0032 21.6533 22.1218 21.6123 22.2904 21.5895C22.7052 21.5439 23.0653 21.4345 23.5029 21.2157C23.9907 20.9787 24.0864 20.8875 24.0864 20.6687C24.0864 20.3452 23.7947 20.2175 23.4756 20.3998C23.2067 20.5547 22.9013 20.696 22.7509 20.7417L22.6278 20.7735L22.7234 20.4181C22.8146 20.0625 22.8146 20.0625 23.0881 19.8847C24.0591 19.2557 24.4784 18.0843 24.1137 16.9994C24.0044 16.6757 23.6761 16.1561 23.4756 15.9874L23.348 15.878L23.5759 15.6547L23.8038 15.4313L24.0773 15.7276C24.4237 16.1014 24.7155 16.694 24.8248 17.2318C24.957 17.9019 24.8385 18.6403 24.4967 19.2739C24.3143 19.6112 24.2961 19.83 24.4419 19.9667C24.6835 20.1901 24.9479 20.0397 25.1986 19.5337C25.9233 18.0614 25.6727 16.3293 24.5604 15.1487L24.3234 14.9026L24.492 14.7339L24.6607 14.5653L24.9205 14.8251C25.0664 14.9664 25.2397 15.1031 25.308 15.1305C25.5632 15.2262 25.6407 15.1487 26.5296 13.9453C26.9946 13.3163 27.4367 12.6827 27.5096 12.5414C27.6373 12.3044 27.6464 12.2542 27.6464 11.7847C27.6464 11.3243 27.6373 11.2651 27.5187 11.0326C27.3272 10.668 23.0745 6.40145 22.7007 6.20544C22.2403 5.9593 21.6523 5.93651 21.1873 6.14619C20.9001 6.27382 18.6347 7.96036 18.5618 8.09711C18.4661 8.27488 18.5299 8.41619 18.8399 8.73982L19.1179 9.03155L17.9601 10.1893L16.7978 11.3517H16.0001H15.2024L14.04 10.1893L12.8822 9.03155L13.1603 8.73982C13.4702 8.41619 13.5341 8.27488 13.4383 8.09711C13.3517 7.93301 11.0179 6.22368 10.7353 6.11428C10.439 6.00488 10.1108 5.97297 9.80542 6.02311ZM22.336 6.8436C22.5776 6.96667 26.7849 11.2013 26.8715 11.4064C26.9626 11.6297 26.958 12.0035 26.8669 12.1859C26.8076 12.3044 26.3791 12.9152 26.2607 13.0474C26.2424 13.0656 24.9616 11.8121 23.4118 10.2623L20.5948 7.44529L21.046 7.1171C21.6431 6.69317 21.9257 6.63392 22.336 6.8436ZM12.4674 8.23386C12.554 8.29767 12.4082 8.4481 9.59119 11.2651L6.62377 14.2325L6.41409 13.9681L6.20441 13.6992L9.10345 10.7956L12.0071 7.89199L12.1894 8.02874C12.2942 8.10168 12.4173 8.19284 12.4674 8.23386ZM25.586 13.9636L25.3764 14.2325L22.4226 11.2788C20.7954 9.65147 19.4644 8.31135 19.4644 8.29767C19.4689 8.28401 19.5828 8.18827 19.7287 8.08344L19.9886 7.89199L22.8922 10.791L25.7957 13.6901L25.586 13.9636ZM13.4383 10.6361L14.4958 11.6936L12.2486 13.9408L10.006 16.1834L8.9348 15.1122L7.86361 14.0411L8.10063 13.804L8.34222 13.567L8.85731 14.073C9.43165 14.6427 9.64132 14.7658 10.0197 14.7704C10.6031 14.7704 11.0316 14.351 11.0316 13.7676C11.0316 13.3801 10.9085 13.175 10.3387 12.5961L9.82821 12.081L10.1199 11.7847L10.4162 11.4884L10.9632 12.0354C11.5512 12.6189 11.7108 12.7192 12.08 12.7192C12.4765 12.7192 12.8412 12.4958 12.9962 12.1494C13.101 11.926 13.1101 11.5021 13.0144 11.2742C12.9734 11.183 12.709 10.8685 12.4127 10.5677L11.8794 10.0298L12.1028 9.8019C12.2258 9.67426 12.3398 9.57398 12.3535 9.57398C12.3671 9.57398 12.8549 10.0526 13.4383 10.6361ZM19.8973 9.8019L20.1208 10.0298L19.5874 10.5677C19.2911 10.8685 19.0268 11.183 18.9857 11.2742C18.89 11.5021 18.8991 11.926 19.0039 12.1494C19.1589 12.4958 19.5235 12.7192 19.9202 12.7192C20.2894 12.7192 20.4489 12.6189 21.0369 12.0354L21.584 11.4884L21.8802 11.7847L22.172 12.081L21.666 12.5915C21.0825 13.1887 20.9685 13.3756 20.9685 13.7539C20.9731 14.351 21.3879 14.7704 21.9805 14.7704C22.3542 14.7658 22.5594 14.6427 23.1383 14.0775L23.6625 13.567L23.8995 13.804L24.1366 14.0411L23.0653 15.1122L21.9941 16.1834L19.7514 13.9408L17.5043 11.6936L18.5618 10.6361C19.1452 10.0526 19.633 9.57398 19.6467 9.57398C19.6603 9.57398 19.7743 9.67426 19.8973 9.8019ZM11.8657 11.0736C12.276 11.4839 12.3535 11.5887 12.3535 11.7072C12.3535 11.8622 12.2213 11.9899 12.0572 11.9899C12.0025 11.9899 11.7655 11.7893 11.4555 11.4793L10.9404 10.9688L11.1319 10.7728C11.2367 10.6634 11.337 10.5768 11.3507 10.5768C11.3643 10.5768 11.5968 10.8002 11.8657 11.0736ZM20.8683 10.7728L21.0597 10.9688L20.5446 11.4793C20.2347 11.7893 19.9977 11.9899 19.9429 11.9899C19.7789 11.9899 19.6467 11.8622 19.6467 11.7072C19.6467 11.5887 19.7241 11.4839 20.1344 11.0736C20.4033 10.8002 20.6358 10.5768 20.6495 10.5768C20.6631 10.5768 20.7634 10.6634 20.8683 10.7728ZM19.2 14.4376L21.5611 16.7988L21.4472 17.1407C21.3879 17.3276 21.315 17.4779 21.2922 17.4688C21.2648 17.4643 20.303 16.7806 19.1543 15.951C18.0103 15.1168 16.9391 14.3738 16.775 14.2963C16.5015 14.1641 16.4422 14.155 15.9955 14.155C15.5306 14.155 15.5032 14.1596 15.1659 14.3282C14.8377 14.4923 14.6827 14.6291 12.8959 16.3794C11.8384 17.4141 10.9632 18.262 10.945 18.2711C10.9267 18.2756 10.8037 17.9475 10.676 17.5418L10.439 16.7988L12.8002 14.4376L15.1568 12.081H16.0001H16.8434L19.2 14.4376ZM9.81453 13.1248C10.3387 13.6536 10.3934 13.7676 10.2111 13.9499C10.0424 14.1186 9.94672 14.0684 9.40429 13.5305L8.88921 13.02L9.08066 12.824C9.1855 12.7146 9.28578 12.628 9.29946 12.628C9.31312 12.628 9.5456 12.8514 9.81453 13.1248ZM22.9195 12.824L23.111 13.02L22.5958 13.5305C22.2859 13.8405 22.0489 14.0411 21.9941 14.0411C21.8301 14.0411 21.6978 13.9134 21.6978 13.7584C21.6978 13.6399 21.7753 13.5351 22.1856 13.1248C22.4546 12.8514 22.687 12.628 22.7007 12.628C22.7143 12.628 22.8146 12.7146 22.9195 12.824ZM16.5288 14.9892C16.9163 15.1852 17.2308 15.682 17.2308 16.0923C17.2308 16.5709 16.8251 17.1133 16.3647 17.2501C16.0593 17.3412 15.9408 17.3412 15.6354 17.2501C15.1613 17.1088 14.7693 16.5709 14.7693 16.0649C14.7693 15.5909 15.1841 15.0621 15.6765 14.9026C15.8679 14.8387 16.3283 14.8889 16.5288 14.9892ZM8.4425 15.6683L8.65674 15.878L8.54279 15.9646C8.34678 16.1242 8.01403 16.6347 7.90008 16.9629C7.57644 17.9019 7.81347 18.9002 8.52 19.5702C8.80716 19.8392 9.32225 20.1491 9.48179 20.1491C9.51825 20.1491 9.52737 20.1855 9.50913 20.2494C9.4909 20.3086 9.46811 20.4545 9.44987 20.5731C9.42252 20.7827 9.41797 20.7919 9.30401 20.7644C9.08066 20.7098 8.62483 20.4681 8.34678 20.2585C7.42602 19.5702 6.95196 18.344 7.17531 17.2318C7.28016 16.7076 7.57644 16.1059 7.90919 15.7367C8.05049 15.5817 8.18268 15.4541 8.19636 15.4541C8.21003 15.4541 8.32399 15.5498 8.4425 15.6683ZM18.931 16.7076L19.8153 17.3458L19.6284 17.3959C19.0221 17.56 18.8033 17.7333 16.9118 19.5975L15.2935 21.1884L15.2662 20.7735C15.2115 20.026 14.9562 19.4653 14.432 18.9366C13.9261 18.4352 13.411 18.1845 12.6589 18.0843L12.2577 18.0295L13.1512 17.1726C13.6662 16.6712 14.0491 16.3384 14.0583 16.3749C14.0674 16.4068 14.0993 16.5253 14.1312 16.6393C14.2634 17.1407 14.6827 17.6375 15.1568 17.8517C16.3647 18.4079 17.7231 17.6785 17.9281 16.3658C17.9556 16.1925 17.992 16.0512 18.0103 16.0558C18.0285 16.0649 18.4433 16.3566 18.931 16.7076ZM10.006 17.8563C10.1701 18.3668 10.3023 18.8089 10.3023 18.8409C10.3023 18.8773 10.2567 18.9411 10.2065 18.9913C10.1518 19.0369 10.047 19.1645 9.97407 19.2694C9.90114 19.3787 9.80998 19.4653 9.76895 19.4653C9.61853 19.4653 9.14903 19.1645 8.9348 18.932C8.62483 18.5948 8.50632 18.2711 8.50632 17.7788C8.50176 17.437 8.52 17.3549 8.64762 17.086C8.72512 16.9219 8.87553 16.6985 8.98038 16.5937L9.17182 16.4022L9.44076 16.6666L9.70514 16.9355L10.006 17.8563ZM23.1155 16.694C23.6716 17.4005 23.6397 18.3122 23.0334 18.9686C22.8922 19.119 22.7645 19.2238 22.7463 19.2056C22.728 19.1873 22.6779 19.0642 22.6323 18.9411C22.5321 18.6585 22.4135 18.4626 22.1674 18.1618L21.9805 17.9246L22.1354 17.4324C22.2813 16.9766 22.3133 16.9173 22.5503 16.6757C22.7873 16.4341 22.81 16.4205 22.9013 16.4797C22.9559 16.5162 23.0517 16.6119 23.1155 16.694ZM21.0233 18.2209C21.4107 18.4033 21.7115 18.7041 21.8939 19.0915C22.0261 19.3651 22.0398 19.438 22.0398 19.8072C22.0352 20.3725 21.9166 20.6687 21.5429 21.038C20.9685 21.6123 20.262 21.7491 19.5737 21.4299C18.4934 20.9239 18.1789 19.6158 18.9219 18.695C19.0997 18.4671 19.3322 18.3076 19.6785 18.1618C19.902 18.0659 20.0022 18.0523 20.3303 18.0614C20.654 18.0751 20.7679 18.0979 21.0233 18.2209ZM13.0554 18.9184C13.958 19.2283 14.5414 20.0534 14.5414 21.0152C14.5414 22.0043 13.8577 22.8794 12.8777 23.1348C11.9888 23.3627 10.9997 22.9615 10.4892 22.1592C10.243 21.7764 10.1564 21.4163 10.1746 20.9012C10.1883 20.4864 10.2065 20.4134 10.3615 20.0898C10.6624 19.4562 11.2686 18.964 11.9204 18.8318C12.235 18.768 12.7318 18.8044 13.0554 18.9184ZM17.9145 20.6322C18.0148 20.9332 18.2153 21.2795 18.4068 21.4801L18.5254 21.6078L17.2263 21.6032H15.9317L16.8434 20.7189L17.755 19.8346L17.787 20.0944C17.8052 20.2357 17.8644 20.4773 17.9145 20.6322ZM16.1824 23.4766V24.6162H16.0001H15.8178V23.4766V22.3371H16.0001H16.1824V23.4766ZM17.5043 23.7C17.5043 24.9444 17.4952 25.072 17.4223 25.1632C17.3219 25.2862 17.1259 25.2953 17.0029 25.186C16.9163 25.1085 16.9118 25.0355 16.9118 23.7182V22.3371H17.208H17.5043V23.7ZM18.5527 23.4766V24.6162H18.3932H18.2336V23.4766V22.3371H18.3932H18.5527V23.4766ZM19.9202 23.7C19.9202 24.9306 19.9111 25.072 19.8427 25.154C19.7014 25.3182 19.5692 25.3227 19.4188 25.1678L19.282 25.0355V23.6863V22.3371H19.601H19.9202V23.7ZM15.0018 25.1769C14.8924 25.2862 14.701 25.2908 14.587 25.186C14.5004 25.1085 14.4958 25.0401 14.4958 24.0647V23.0299L14.783 22.7565L15.0656 22.4784L15.0793 23.7866C15.0884 25.0219 15.0839 25.0948 15.0018 25.1769ZM13.7665 24.092V24.6162H13.607H13.4474V24.1695V23.7228L13.5979 23.6453C13.6754 23.6088 13.7483 23.5724 13.7574 23.5724C13.762 23.5678 13.7665 23.8048 13.7665 24.092ZM12.7181 24.4839V25.0355L12.5814 25.1678C12.431 25.3227 12.2988 25.3182 12.162 25.154C12.0937 25.0765 12.08 24.9717 12.08 24.4976V23.9325H12.3991H12.7181V24.4839Z" fill="#5E5E5E" stroke="#C2C2C2" stroke-width="0.1"/>
<path d="M19.7789 18.9089C19.0586 19.2827 19.0632 20.3721 19.7834 20.7413C20.221 20.9647 20.6813 20.8963 21.0187 20.559C21.6887 19.889 21.2284 18.7812 20.2848 18.7812C20.0842 18.7812 19.9611 18.8132 19.7789 18.9089ZM20.5127 19.6018C20.5629 19.6519 20.6039 19.7431 20.6039 19.807C20.6039 19.9482 20.417 20.1488 20.2848 20.1488C20.1572 20.1488 19.9657 19.9528 19.9657 19.8252C19.9657 19.5653 20.3258 19.4149 20.5127 19.6018Z" fill="#5E5E5E" stroke="#C2C2C2" stroke-width="0.1"/>
<path d="M11.9432 20.0174C11.3096 20.2817 11.1 21.1387 11.5421 21.6766C11.7472 21.9227 12.0025 22.0367 12.3535 22.0367C12.709 22.0367 12.9597 21.9227 13.1648 21.6721C13.5477 21.2071 13.4383 20.4459 12.9369 20.1131C12.7774 20.0083 12.6908 19.99 12.4036 19.9809C12.2122 19.9718 12.007 19.99 11.9432 20.0174ZM12.5814 20.7877C12.7546 20.961 12.6498 21.2527 12.3899 21.3165C12.2942 21.3347 12.2395 21.3165 12.1529 21.2253C11.9387 21.0157 12.0572 20.6965 12.3535 20.6965C12.431 20.6965 12.5312 20.7376 12.5814 20.7877Z" fill="#5E5E5E" stroke="#C2C2C2" stroke-width="0.1"/>
</svg>
