
<svg width="46" height="25" viewBox="0 0 46 25" fill="none" xmlns="http://www.w3.org/2000/svg">
<path d="M4.30502 15.5C4.38752 15.1325 4.23752 14.6075 3.97502 14.345L2.15252 12.5225C1.58252 11.9525 1.35752 11.345 1.52252 10.82C1.69502 10.295 2.22752 9.935 3.02252 9.8L5.36252 9.41C5.70002 9.35 6.11252 9.05 6.27002 8.7425L7.56002 6.155C7.93502 5.4125 8.44502 5 9.00002 5C9.55502 5 10.065 5.4125 10.44 6.155L11.73 8.7425C11.8275 8.9375 12.03 9.125 12.2475 9.2525L4.17002 17.33C4.06502 17.435 3.88502 17.3375 3.91502 17.1875L4.30502 15.5Z" fill="#EDB628"/>
<path d="M14.0251 14.3444C13.7551 14.6144 13.6051 15.1319 13.6951 15.4994L14.2126 17.7569C14.4301 18.6944 14.2951 19.3994 13.8301 19.7369C13.6426 19.8719 13.4176 19.9394 13.1551 19.9394C12.7726 19.9394 12.3226 19.7969 11.8276 19.5044L9.6301 18.1994C9.2851 17.9969 8.7151 17.9969 8.3701 18.1994L6.1726 19.5044C5.3401 19.9919 4.6276 20.0744 4.1701 19.7369C3.9976 19.6094 3.8701 19.4369 3.7876 19.2119L12.9076 10.0919C13.2526 9.74693 13.7401 9.58943 14.2126 9.67193L14.9701 9.79943C15.7651 9.93443 16.2976 10.2944 16.4701 10.8194C16.6351 11.3444 16.4101 11.9519 15.8401 12.5219L14.0251 14.3444Z" fill="#EDB628"/>
<path d="M25.6357 9.82227C25.7907 8.99284 26.1006 8.3571 26.5654 7.91504C27.0303 7.47298 27.6364 7.25195 28.3838 7.25195C28.598 7.25195 28.8372 7.28158 29.1016 7.34082C29.3704 7.39551 29.637 7.47526 29.9014 7.58008L29.5117 8.76953C29.0788 8.60547 28.6663 8.52344 28.2744 8.52344C27.7139 8.52344 27.2673 8.7194 26.9346 9.11133C26.6019 9.4987 26.431 10.041 26.4219 10.7383C26.5586 11.0117 26.791 11.2259 27.1191 11.3809C27.4473 11.5358 27.8278 11.6133 28.2607 11.6133C28.8167 11.6133 29.3317 11.4925 29.8057 11.251L30.1543 12.4268C29.5117 12.7275 28.8942 12.8779 28.3018 12.8779C27.7367 12.8779 27.2399 12.764 26.8115 12.5361C26.3877 12.3083 26.0003 11.9665 25.6494 11.5107L25.5879 11.5381C25.7793 12.3402 25.9229 13.1787 26.0186 14.0537C26.1143 14.9242 26.1621 15.9062 26.1621 17H24.8359C24.8314 15.7832 24.7721 14.6644 24.6582 13.6436C24.5488 12.6227 24.3734 11.6361 24.1318 10.6836C23.8949 9.73112 23.5804 8.75358 23.1885 7.75098L24.5146 7.29297C24.7015 7.79883 24.8838 8.26139 25.0615 8.68066C25.2393 9.09993 25.4079 9.48047 25.5674 9.82227H25.6357ZM36.1357 7.38867H37.2295L32.7861 17H31.6855L36.1357 7.38867ZM42.3086 10.5264C42.8555 10.5264 43.2337 10.3418 43.4434 9.97266C43.653 9.59896 43.7943 9.02018 43.8672 8.23633L43.9629 7.375L45.2686 7.55273C45.1774 8.43685 45.043 9.20475 44.8652 9.85645C44.6875 10.5036 44.4118 11.0049 44.0381 11.3604C43.6689 11.7158 43.1471 11.8936 42.4727 11.8936C42.0579 11.8936 41.6979 11.7409 41.3926 11.4355L41.3311 11.4766C41.5179 12.3424 41.6478 13.2243 41.7207 14.1221C41.7982 15.0199 41.8392 15.9792 41.8438 17H40.5176C40.5176 16.1432 40.488 15.3343 40.4287 14.5732C40.374 13.8122 40.2829 13.0716 40.1553 12.3516C40.0277 11.627 39.8568 10.8932 39.6426 10.1504C39.4284 9.40299 39.1595 8.61458 38.8359 7.78516L40.1074 7.29297L40.4492 8.22266C40.6634 8.79688 40.8548 9.2526 41.0234 9.58984C41.1966 9.92253 41.3812 10.1618 41.5771 10.3076C41.7777 10.4535 42.0215 10.5264 42.3086 10.5264Z" fill="#414141"/>
</svg>
