
<svg width="56" height="56" viewBox="0 0 56 56" fill="none" xmlns="http://www.w3.org/2000/svg">
<rect width="56" height="56" rx="16" fill="#FDB713"/>
<path d="M27.5 37.25C22.1261 37.25 17.75 32.8739 17.75 27.5C17.75 22.1261 22.1261 17.75 27.5 17.75C32.8739 17.75 37.25 22.1261 37.25 27.5C37.25 32.8739 32.8739 37.25 27.5 37.25ZM27.5 18.25C22.3935 18.25 18.25 22.4042 18.25 27.5C18.25 32.5958 22.3935 36.75 27.5 36.75C32.6065 36.75 36.75 32.5958 36.75 27.5C36.75 22.4042 32.6065 18.25 27.5 18.25Z" fill="#212121" stroke="#212121"/>
<path d="M38.0004 38.2495C37.9359 38.2495 37.8753 38.2272 37.824 38.1759L35.824 36.1759C35.7292 36.0812 35.7292 35.9177 35.824 35.823C35.9187 35.7283 36.0821 35.7283 36.1769 35.823L38.1769 37.823C38.2716 37.9177 38.2716 38.0812 38.1769 38.1759C38.1256 38.2272 38.065 38.2495 38.0004 38.2495Z" fill="#212121" stroke="#212121"/>
</svg>
