
<svg width="32" height="32" viewBox="0 0 32 32" fill="none" xmlns="http://www.w3.org/2000/svg">
<rect x="0.25" y="0.25" width="31.5" height="31.5" rx="1.75" stroke="#C2C2C2" stroke-width="0.5"/>
<path d="M9.99998 21.9204C9.99998 21.9204 6 13.9602 6 9.98011C6 6 8.66665 6 8.66665 6H9.99998C9.99998 6 11.3333 6 11.3333 6.99503C11.3333 7.99006 9.99998 7.99006 9.99998 9.98011C9.99998 11.9702 14 13.9602 14 16.9453C14 19.9304 9.99998 21.9204 9.99998 21.9204ZM16.6666 20.9254C15.3333 20.9254 11.3333 23.413 11.3333 23.413C10.9333 23.6119 11.0666 23.9104 11.3333 24.209C11.3333 24.209 12.6666 26 15.3333 26H23.3332C24.8 26 26 25.1045 26 24.01V23.0149C26 21.9204 24.8 21.0249 23.3332 21.0249H16.6666V20.9254Z" fill="#727272"/>
</svg>
