
<svg width="128" height="21" viewBox="0 0 128 21" fill="none" xmlns="http://www.w3.org/2000/svg">
<path d="M39.5293 14H38.6094C38.6094 12.9844 38.5645 12.0508 38.4746 11.1992C38.3848 10.3477 38.2363 9.51758 38.0293 8.70898C37.8223 7.90039 37.5391 7.05273 37.1797 6.16602L38.0703 5.80859C38.4297 6.71875 38.7148 7.59961 38.9258 8.45117C39.1367 9.30273 39.2891 10.1777 39.3828 11.0762C39.4805 11.9746 39.5293 12.9492 39.5293 14ZM42.8516 8.11719C42.9531 7.375 43.1992 6.80078 43.5898 6.39453C43.9805 5.98438 44.4922 5.7793 45.125 5.7793C45.5039 5.7793 45.9219 5.86914 46.3789 6.04883L46.1035 6.875C45.752 6.73828 45.4043 6.66992 45.0605 6.66992C44.5566 6.66992 44.1582 6.85352 43.8652 7.2207C43.5762 7.58398 43.4258 8.10156 43.4141 8.77344C43.5586 9.00391 43.7754 9.18555 44.0645 9.31836C44.3535 9.45117 44.6797 9.51758 45.043 9.51758C45.5195 9.51758 45.9668 9.40234 46.3848 9.17188L46.6484 9.98047C46.1133 10.2539 45.584 10.3906 45.0605 10.3906C44.5566 10.3906 44.1152 10.2812 43.7363 10.0625C43.3574 9.83984 43.0195 9.51172 42.7227 9.07812L42.6699 9.10156C42.8457 9.76953 42.9805 10.5078 43.0742 11.3164C43.1719 12.125 43.2207 13.0195 43.2207 14H42.3008C42.3008 12.9531 42.2539 11.9961 42.1602 11.1289C42.0664 10.2578 41.916 9.41992 41.709 8.61523C41.5059 7.81055 41.2344 6.98633 40.8945 6.14258L41.8145 5.80273C41.9863 6.26367 42.1562 6.69336 42.3242 7.0918C42.4922 7.48633 42.6484 7.82812 42.793 8.11719H42.8516ZM49.877 9.49414C50.4004 9.49414 50.8164 9.6582 51.125 9.98633C51.4336 10.3105 51.5879 10.7188 51.5879 11.2109C51.5879 11.6953 51.4336 12.1055 51.125 12.4414C50.8203 12.7734 50.4043 12.9395 49.877 12.9395C49.3535 12.9395 48.9395 12.7734 48.6348 12.4414C48.3301 12.1055 48.1777 11.6953 48.1777 11.2109C48.1777 10.7227 48.3301 10.3145 48.6348 9.98633C48.9434 9.6582 49.3574 9.49414 49.877 9.49414ZM49.877 10.2617C49.5449 10.2617 49.3008 10.3555 49.1445 10.543C48.9883 10.7305 48.9102 10.9531 48.9102 11.2109C48.9102 11.4648 48.9883 11.6875 49.1445 11.8789C49.3047 12.0703 49.5488 12.166 49.877 12.166C50.209 12.166 50.4551 12.0703 50.6152 11.8789C50.7754 11.6875 50.8555 11.4648 50.8555 11.2109C50.8555 10.957 50.7754 10.7363 50.6152 10.5488C50.459 10.3574 50.2129 10.2617 49.877 10.2617ZM57.1367 8.38672C57.0391 8.71094 56.8984 8.9668 56.7148 9.1543C56.5312 9.3418 56.2754 9.43555 55.9473 9.43555C55.7559 9.43555 55.5996 9.40039 55.4785 9.33008C55.3574 9.25977 55.2402 9.15625 55.127 9.01953L55.0801 9.05469C55.2559 9.84375 55.3809 10.6367 55.4551 11.4336C55.5332 12.2266 55.5723 13.082 55.5723 14H54.6582C54.6582 13.0195 54.6133 12.1035 54.5234 11.252C54.4375 10.3965 54.293 9.55664 54.0898 8.73242C53.8867 7.9043 53.6055 7.04492 53.2461 6.1543L54.1309 5.80859L54.4473 6.78711C54.6777 7.39648 54.8867 7.83203 55.0742 8.09375C55.2656 8.35156 55.5156 8.48047 55.8242 8.48047C56.1133 8.48047 56.3281 8.36914 56.4688 8.14648C56.6133 7.92383 56.7109 7.60547 56.7617 7.19141C56.7812 7 56.7969 6.82031 56.8086 6.65234C56.8203 6.48047 56.8281 6.29297 56.832 6.08984L57.6289 6.10742C57.6055 6.33008 57.584 6.53125 57.5645 6.71094C57.5449 6.89062 57.5352 7.07812 57.5352 7.27344C57.5352 7.65234 57.6133 7.94922 57.7695 8.16406C57.9258 8.375 58.1875 8.48047 58.5547 8.48047C58.9023 8.48047 59.1387 8.36914 59.2637 8.14648C59.3887 7.92383 59.4512 7.62695 59.4512 7.25586C59.4512 6.85352 59.4102 6.41797 59.3281 5.94922L60.1777 5.79688C60.2207 6.04688 60.2539 6.28516 60.2773 6.51172C60.3008 6.73828 60.3125 6.94922 60.3125 7.14453C60.3125 7.87109 60.1719 8.43555 59.8906 8.83789C59.6133 9.23633 59.1719 9.43555 58.5664 9.43555C58.2031 9.43555 57.9062 9.3418 57.6758 9.1543C57.4453 8.96289 57.2852 8.70703 57.1953 8.38672H57.1367ZM65.6621 5.88477H66.4238L62.7148 14H61.9414L65.6621 5.88477ZM69.8926 9.49414C70.416 9.49414 70.832 9.6582 71.1406 9.98633C71.4492 10.3105 71.6035 10.7188 71.6035 11.2109C71.6035 11.6953 71.4492 12.1055 71.1406 12.4414C70.8359 12.7734 70.4199 12.9395 69.8926 12.9395C69.3691 12.9395 68.9551 12.7734 68.6504 12.4414C68.3457 12.1055 68.1934 11.6953 68.1934 11.2109C68.1934 10.7227 68.3457 10.3145 68.6504 9.98633C68.959 9.6582 69.373 9.49414 69.8926 9.49414ZM69.8926 10.2617C69.5605 10.2617 69.3164 10.3555 69.1602 10.543C69.0039 10.7305 68.9258 10.9531 68.9258 11.2109C68.9258 11.4648 69.0039 11.6875 69.1602 11.8789C69.3203 12.0703 69.5645 12.166 69.8926 12.166C70.2246 12.166 70.4707 12.0703 70.6309 11.8789C70.791 11.6875 70.8711 11.4648 70.8711 11.2109C70.8711 10.957 70.791 10.7363 70.6309 10.5488C70.4746 10.3574 70.2285 10.2617 69.8926 10.2617ZM77.1523 8.38672C77.0547 8.71094 76.9141 8.9668 76.7305 9.1543C76.5469 9.3418 76.291 9.43555 75.9629 9.43555C75.7715 9.43555 75.6152 9.40039 75.4941 9.33008C75.373 9.25977 75.2559 9.15625 75.1426 9.01953L75.0957 9.05469C75.2715 9.84375 75.3965 10.6367 75.4707 11.4336C75.5488 12.2266 75.5879 13.082 75.5879 14H74.6738C74.6738 13.0195 74.6289 12.1035 74.5391 11.252C74.4531 10.3965 74.3086 9.55664 74.1055 8.73242C73.9023 7.9043 73.6211 7.04492 73.2617 6.1543L74.1465 5.80859L74.4629 6.78711C74.6934 7.39648 74.9023 7.83203 75.0898 8.09375C75.2812 8.35156 75.5312 8.48047 75.8398 8.48047C76.1289 8.48047 76.3438 8.36914 76.4844 8.14648C76.6289 7.92383 76.7266 7.60547 76.7773 7.19141C76.7969 7 76.8125 6.82031 76.8242 6.65234C76.8359 6.48047 76.8438 6.29297 76.8477 6.08984L77.6445 6.10742C77.6211 6.33008 77.5996 6.53125 77.5801 6.71094C77.5605 6.89062 77.5508 7.07812 77.5508 7.27344C77.5508 7.65234 77.6289 7.94922 77.7852 8.16406C77.9414 8.375 78.2031 8.48047 78.5703 8.48047C78.918 8.48047 79.1543 8.36914 79.2793 8.14648C79.4043 7.92383 79.4668 7.62695 79.4668 7.25586C79.4668 6.85352 79.4258 6.41797 79.3438 5.94922L80.1934 5.79688C80.2363 6.04688 80.2695 6.28516 80.293 6.51172C80.3164 6.73828 80.3281 6.94922 80.3281 7.14453C80.3281 7.87109 80.1875 8.43555 79.9062 8.83789C79.6289 9.23633 79.1875 9.43555 78.582 9.43555C78.2188 9.43555 77.9219 9.3418 77.6914 9.1543C77.4609 8.96289 77.3008 8.70703 77.2109 8.38672H77.1523ZM85.6777 5.88477H86.4395L82.7305 14H81.957L85.6777 5.88477ZM90.4004 14H89.4805C89.4805 12.9844 89.4355 12.0508 89.3457 11.1992C89.2559 10.3477 89.1074 9.51758 88.9004 8.70898C88.6934 7.90039 88.4102 7.05273 88.0508 6.16602L88.9414 5.80859C89.3008 6.71875 89.5859 7.59961 89.7969 8.45117C90.0078 9.30273 90.1602 10.1777 90.2539 11.0762C90.3516 11.9746 90.4004 12.9492 90.4004 14ZM94.7012 8.63281C95.209 8.63281 95.5605 8.45898 95.7559 8.11133C95.9512 7.76367 96.0762 7.24805 96.1309 6.56445L96.2012 5.88477L97.1035 6.00195C97.0566 6.52148 96.9902 6.99805 96.9043 7.43164C96.8223 7.86523 96.6992 8.24219 96.5352 8.5625C96.375 8.88281 96.1543 9.13086 95.873 9.30664C95.5957 9.48242 95.2363 9.57031 94.7949 9.57031C94.3926 9.57031 94.0527 9.41992 93.7754 9.11914L93.7285 9.14844C93.8965 9.90625 94.0137 10.6797 94.0801 11.4688C94.1504 12.2578 94.1875 13.1016 94.1914 14H93.2773C93.2773 13.0195 93.2324 12.1113 93.1426 11.2754C93.0566 10.4355 92.9102 9.60547 92.7031 8.78516C92.4961 7.96094 92.209 7.08789 91.8418 6.16602L92.7324 5.80859L93.0078 6.55859C93.1992 7.06641 93.3711 7.47266 93.5234 7.77734C93.6797 8.07812 93.8477 8.29688 94.0273 8.43359C94.2109 8.56641 94.4355 8.63281 94.7012 8.63281ZM101.135 9.14844C101.135 8.96484 101.197 8.8125 101.322 8.69141C101.447 8.56641 101.604 8.50391 101.791 8.50391C101.979 8.50391 102.135 8.56641 102.26 8.69141C102.389 8.8125 102.453 8.96484 102.453 9.14844C102.453 9.32812 102.389 9.48242 102.26 9.61133C102.135 9.74023 101.979 9.80469 101.791 9.80469C101.604 9.80469 101.447 9.74023 101.322 9.61133C101.197 9.48242 101.135 9.32812 101.135 9.14844ZM101.135 13.4082C101.135 13.2246 101.197 13.0723 101.322 12.9512C101.447 12.8262 101.604 12.7637 101.791 12.7637C101.979 12.7637 102.135 12.8262 102.26 12.9512C102.389 13.0723 102.453 13.2246 102.453 13.4082C102.453 13.5879 102.389 13.7422 102.26 13.8711C102.135 14 101.979 14.0645 101.791 14.0645C101.604 14.0645 101.447 14 101.322 13.8711C101.197 13.7422 101.135 13.5879 101.135 13.4082ZM106.121 8.98438C106.336 8.98438 106.59 9.0293 106.883 9.11914C107.176 9.20898 107.564 9.36328 108.049 9.58203C108.635 9.84375 109.115 10.0449 109.49 10.1855C109.865 10.3262 110.219 10.4375 110.551 10.5195L110.457 11.5977C110.211 11.625 109.994 11.6562 109.807 11.6914C109.623 11.7227 109.457 11.7559 109.309 11.791V11.8496C109.5 12.2715 109.74 12.5762 110.029 12.7637C110.318 12.9512 110.686 13.0449 111.131 13.0449H111.477V14H111.213C110.58 14 110.059 13.8359 109.648 13.5078C109.242 13.1758 108.93 12.666 108.711 11.9785C107.969 12.1582 107.311 12.4141 106.736 12.7461C106.166 13.0781 105.719 13.457 105.395 13.8828C105.074 14.3047 104.914 14.7441 104.914 15.2012C104.914 15.7949 105.186 16.2695 105.729 16.625C106.275 16.9805 107.008 17.1582 107.926 17.1582C108.902 17.1582 109.785 16.9805 110.574 16.625L110.996 17.457C109.984 17.9141 108.959 18.1426 107.92 18.1426C107.135 18.1426 106.449 18.0234 105.863 17.7852C105.281 17.5508 104.828 17.2188 104.504 16.7891C104.18 16.3633 104.018 15.8633 104.018 15.2891C104.018 14.625 104.24 14.0059 104.686 13.4316C105.135 12.8574 105.76 12.3633 106.561 11.9492C107.365 11.5352 108.301 11.2383 109.367 11.0586V11C109.137 10.9414 108.883 10.8633 108.605 10.7656C108.332 10.668 107.996 10.5352 107.598 10.3672C107.191 10.1992 106.877 10.082 106.654 10.0156C106.436 9.94531 106.258 9.91016 106.121 9.91016C105.859 9.91016 105.641 9.99609 105.465 10.168C105.293 10.3359 105.129 10.6211 104.973 11.0234L104.932 11.1289L104.246 10.9121L104.281 10.8008C104.496 10.1602 104.746 9.69727 105.031 9.41211C105.32 9.12695 105.684 8.98438 106.121 8.98438ZM106.725 6.66992L107.492 5.90234L108.266 6.66992L107.492 7.44336L106.725 6.66992ZM112.004 16.1035L112.771 15.3359L113.539 16.1035L112.771 16.877L112.004 16.1035ZM114.043 16.1035L114.811 15.3359L115.584 16.1035L114.811 16.877L114.043 16.1035ZM115.438 9.51172C115.543 9.92578 115.627 10.3184 115.689 10.6895C115.756 11.0566 115.789 11.3887 115.789 11.6855C115.789 12.4316 115.58 13.0039 115.162 13.4023C114.744 13.8008 114.033 14 113.029 14H111.477C111.363 14 111.307 13.8398 111.307 13.5195C111.307 13.2031 111.363 13.0449 111.477 13.0449H113.029C113.74 13.0449 114.23 12.9258 114.5 12.6875C114.77 12.4492 114.904 12.0996 114.904 11.6387C114.904 11.4043 114.873 11.127 114.811 10.8066C114.752 10.4824 114.676 10.1289 114.582 9.74609L115.438 9.51172ZM118.777 10.5781L119.639 10.2734C119.857 10.9141 120.029 11.5059 120.154 12.0488C120.279 12.5918 120.342 13.0781 120.342 13.5078C120.342 14.3438 120.064 15.0527 119.51 15.6348C118.955 16.2168 118.072 16.7285 116.861 17.1699L116.463 16.3027C117.502 15.9316 118.256 15.5332 118.725 15.1074C119.197 14.6855 119.434 14.1621 119.434 13.5371C119.434 13.1777 119.375 12.7402 119.258 12.2246C119.141 11.7051 118.98 11.1562 118.777 10.5781ZM121.977 6.25391H122.896V11.4746C122.896 12.0332 123.018 12.4355 123.26 12.6816C123.506 12.9238 123.943 13.0449 124.572 13.0449H124.578V14H124.572C123.725 14 123.08 13.791 122.639 13.373C122.197 12.9551 121.977 12.3281 121.977 11.4922V6.25391ZM127.045 9.51172C127.15 9.92578 127.234 10.3184 127.297 10.6895C127.363 11.0566 127.396 11.3887 127.396 11.6855C127.396 12.4316 127.195 13.0039 126.793 13.4023C126.395 13.8008 125.756 14 124.877 14H124.578C124.465 14 124.408 13.8398 124.408 13.5195C124.408 13.2031 124.465 13.0449 124.578 13.0449H124.877C125.467 13.0449 125.887 12.9258 126.137 12.6875C126.387 12.4492 126.512 12.0996 126.512 11.6387C126.512 11.4043 126.48 11.127 126.418 10.8066C126.359 10.4824 126.283 10.1289 126.189 9.74609L127.045 9.51172ZM124.273 7.34961L125.041 6.58203L125.809 7.34961L125.041 8.12305L124.273 7.34961ZM126.312 7.34961L127.08 6.58203L127.854 7.34961L127.08 8.12305L126.312 7.34961Z" fill="#9C9C9C"/>
</svg>
