
<svg width="33" height="32" viewBox="0 0 33 32" fill="none" xmlns="http://www.w3.org/2000/svg">
<rect x="0.75" y="0.25" width="31.5" height="31.5" rx="1.75" stroke="#C2C2C2" stroke-width="0.5"/>
<g clip-path="url(#clip0_2685_77105)">
<path d="M16.5 7.65625C12.0974 7.65625 8.52856 11.2861 8.52856 15.7639C8.52856 20.2418 12.0974 23.8716 16.5 23.8716C20.9026 23.8716 24.4715 20.2418 24.4715 15.7639C24.4715 11.2861 20.9026 7.65625 16.5 7.65625ZM19.6886 16.5747L22.8277 16.5755C22.6501 18.0043 22.0102 19.3323 21.0091 20.3506C20.0077 21.3688 18.7019 22.0194 17.2971 22.1998V19.007C17.9314 19.007 18.5396 18.7508 18.9881 18.2946C19.4366 17.8385 19.6886 17.2198 19.6886 16.5747ZM10.1723 16.5755L13.3114 16.5747C13.3114 17.2198 13.5634 17.8385 14.0119 18.2946C14.4603 18.7508 15.0686 19.007 15.7028 19.007L15.7021 22.1998C14.2974 22.0193 12.9918 21.3685 11.9907 20.3504C10.9895 19.3321 10.3498 18.0042 10.1723 16.5755ZM16.5 9.27779C18.0533 9.27782 19.5532 9.85439 20.7182 10.8993C21.8833 11.9443 22.6334 13.3857 22.8277 14.9532H19.6886C19.6886 14.7381 19.6046 14.5319 19.4551 14.3799C19.3056 14.2278 19.1028 14.1424 18.8914 14.1424H14.1086C13.8972 14.1424 13.6944 14.2278 13.5449 14.3799C13.3954 14.5319 13.3114 14.7381 13.3114 14.9532H10.1723C10.3666 13.3857 11.1167 11.9443 12.2817 10.8993C13.4468 9.85439 14.9467 9.27782 16.5 9.27779Z" fill="#727272"/>
</g>
<defs>
<clipPath id="clip0_2685_77105">
<rect width="18" height="17" fill="white" transform="translate(7.5 7.5)"/>
</clipPath>
</defs>
</svg>
